<?xml version="1.0" encoding="UTF-8"?><svg id="Camada_2" xmlns="http://www.w3.org/2000/svg" width="474.149" height="293.484" xmlns:xlink="http://www.w3.org/1999/xlink" viewBox="0 0 474.149 293.484"><defs><style>.cls-1{fill:url(#Gradiente_sem_nome_266-5);}.cls-2{fill:url(#Gradiente_sem_nome_266-6);}.cls-3{fill:url(#Gradiente_sem_nome_266-4);}.cls-4{fill:url(#Gradiente_sem_nome_266-2);}.cls-5{fill:url(#Gradiente_sem_nome_266-3);}.cls-6{fill:url(#Gradiente_sem_nome_266);}</style><linearGradient id="Gradiente_sem_nome_266" x1="224.008" y1="318.171" x2="469.335" y2="318.171" gradientTransform="translate(-158.265 77.74) rotate(45) scale(1 -1)" gradientUnits="userSpaceOnUse"><stop offset="0" stop-color="#fff"/><stop offset="1" stop-color="#fff"/></linearGradient><linearGradient id="Gradiente_sem_nome_266-2" x1="219.592" y1="301.588" x2="469.638" y2="301.588" gradientTransform="translate(-146.898 83.461) rotate(45) scale(1 -1)" xlink:href="#Gradiente_sem_nome_266"/><linearGradient id="Gradiente_sem_nome_266-3" x1="233.625" y1="310.79" x2="469.384" y2="310.79" gradientTransform="translate(-145.124 60.775) rotate(45) scale(1 -1)" xlink:href="#Gradiente_sem_nome_266"/><linearGradient id="Gradiente_sem_nome_266-4" x1="183.581" y1="177.957" x2="474.149" y2="177.957" gradientTransform="translate(0 331.994) scale(1 -1)" xlink:href="#Gradiente_sem_nome_266"/><linearGradient id="Gradiente_sem_nome_266-5" x1="141.111" y1="98.978" x2="326.501" y2="98.978" gradientTransform="translate(0 331.994) scale(1 -1)" xlink:href="#Gradiente_sem_nome_266"/><linearGradient id="Gradiente_sem_nome_266-6" x1="0" y1="146.296" x2="241.461" y2="146.296" gradientTransform="translate(0 331.994) scale(1 -1)" xlink:href="#Gradiente_sem_nome_266"/></defs><rect class="cls-6" x="225.113" y="11.157" width="5.332" height="5.332" transform="translate(56.941 165.113) rotate(-45)"/><rect class="cls-4" x="221.632" y="25.481" width="9.85" height="9.85" transform="translate(44.857 169.106) rotate(-45)"/><rect class="cls-5" x="239.836" y="6.211" width="29.987" height="29.987" transform="translate(59.644 186.402) rotate(-45)"/><path class="cls-3" d="M468.291,241.737l-43.61,43.61-69.38-69.38c-7.85-7.85-20.56-7.83-28.38.03l-.31.31c-.04.02-.07.04-.11.06-11.25,6.37-12.8,6.51-26.43,6.51-15.87,0-31.74-12.48-43.6-21.23l-15.01-15.01-.16-.16-.2-.2,28.12-28.12c7.81-7.81,7.81-20.47,0-28.28l-28.12-28.11-57.52-57.53,21.51-21.51,20.94,20.94,8.81-8.82,18.93,18.93,27.42-27.42,187.1,187.1c7.81,7.81,7.81,20.47,0,28.28Z"/><path class="cls-1" d="M300.071,222.877c-15.87,0-31.74-12.48-43.6-21.23l-15.01-15.01c-.03-.02-.06-.05-.09-.06-.11-.09-.22-.17-.33-.24-11.83-8.68-26.41-13.79-42.19-13.79-.26,0-.52,0-.77.01-15.68.16-30.13,5.37-41.83,14.08-.01,0-.01.01-.02.01l-14.76,14.76-.36.36,85.86,85.86c7.81,7.81,20.47,7.81,28.28,0l71.25-71.26c-11.25,6.37-12.8,6.51-26.43,6.51h0Z"/><path class="cls-2" d="M156.231,186.647c.01,0,.01-.01.02-.01,11.7-8.71,26.15-13.92,41.83-14.08.25-.01.51-.01.77-.01,15.78,0,30.36,5.11,42.19,13.79.11.07.22.15.33.24.03.01.06.04.09.06l-.16-.16-.2-.2-85.86-85.86c-7.81-7.81-20.471-7.81-28.281,0L0,227.377l43.611,43.603c7.809,7.808,20.469,7.808,28.279,0l69.221-69.213.36-.36,14.76-14.76h0Z"/></svg>